<mxfile host="app.diagrams.net" modified="2023-06-12T14:37:33.623Z" agent="Mozilla/5.0 (Windows NT 10.0; Win64; x64) AppleWebKit/537.36 (KHTML, like Gecko) Chrome/112.0.0.0 YaBrowser/23.5.1.721 Yowser/2.5 Safari/537.36" etag="n-syJMg3IrNa34DHNMtU" version="21.3.7" type="device" pages="2">
  <diagram name="Развертывания" id="TQvgfPKAKqeSR1SiVUFu">
    <mxGraphModel dx="1111" dy="493" grid="1" gridSize="10" guides="1" tooltips="1" connect="1" arrows="1" fold="1" page="1" pageScale="1" pageWidth="2339" pageHeight="3300" math="0" shadow="0">
      <root>
        <mxCell id="0" />
        <mxCell id="1" parent="0" />
        <mxCell id="hWTjij_SU9B1vVQcxRdL-14" value="&amp;lt;&amp;lt;Device&amp;gt;&amp;gt;&lt;br&gt;:UserClientResources" style="verticalAlign=top;align=left;spacingTop=8;spacingLeft=2;spacingRight=12;shape=cube;size=10;direction=south;fontStyle=4;html=1;whiteSpace=wrap;" parent="1" vertex="1">
          <mxGeometry x="200" y="80" width="220" height="170" as="geometry" />
        </mxCell>
        <mxCell id="hWTjij_SU9B1vVQcxRdL-15" value="&amp;lt;&amp;lt;Device&amp;gt;&amp;gt;&lt;br&gt;:WebServer" style="verticalAlign=top;align=left;spacingTop=8;spacingLeft=2;spacingRight=12;shape=cube;size=10;direction=south;fontStyle=4;html=1;whiteSpace=wrap;" parent="1" vertex="1">
          <mxGeometry x="440" y="280" width="180" height="120" as="geometry" />
        </mxCell>
        <mxCell id="hWTjij_SU9B1vVQcxRdL-17" value="" style="endArrow=classic;html=1;rounded=0;entryX=0;entryY=0;entryDx=65;entryDy=180;entryPerimeter=0;exitX=0;exitY=0;exitDx=170;exitDy=115;exitPerimeter=0;" parent="1" source="hWTjij_SU9B1vVQcxRdL-14" target="hWTjij_SU9B1vVQcxRdL-15" edge="1">
          <mxGeometry width="50" height="50" relative="1" as="geometry">
            <mxPoint x="280" y="280" as="sourcePoint" />
            <mxPoint x="710" y="280" as="targetPoint" />
            <Array as="points">
              <mxPoint x="305" y="345" />
            </Array>
          </mxGeometry>
        </mxCell>
        <mxCell id="hWTjij_SU9B1vVQcxRdL-18" value="&amp;lt;&amp;lt;Device&amp;gt;&amp;gt;&lt;br&gt;:DBServer" style="verticalAlign=top;align=left;spacingTop=8;spacingLeft=2;spacingRight=12;shape=cube;size=10;direction=south;fontStyle=4;html=1;whiteSpace=wrap;" parent="1" vertex="1">
          <mxGeometry x="660" y="440" width="180" height="120" as="geometry" />
        </mxCell>
        <mxCell id="hWTjij_SU9B1vVQcxRdL-19" value="&lt;font style=&quot;font-size: 8px;&quot;&gt;&amp;lt;&amp;lt;Artifact&amp;gt;&amp;gt;&lt;/font&gt;&lt;br&gt;Tomcat 9&lt;br&gt;SpringBoot" style="shape=module;align=left;spacingLeft=20;align=center;verticalAlign=top;whiteSpace=wrap;html=1;" parent="1" vertex="1">
          <mxGeometry x="460" y="330" width="130" height="60" as="geometry" />
        </mxCell>
        <mxCell id="hWTjij_SU9B1vVQcxRdL-20" value="&lt;font style=&quot;font-size: 8px;&quot;&gt;&amp;lt;&amp;lt;Artifact&amp;gt;&amp;gt;&lt;/font&gt;&lt;br&gt;MySql DB" style="shape=module;align=left;spacingLeft=20;align=center;verticalAlign=top;whiteSpace=wrap;html=1;" parent="1" vertex="1">
          <mxGeometry x="680" y="490" width="130" height="60" as="geometry" />
        </mxCell>
        <mxCell id="hWTjij_SU9B1vVQcxRdL-21" value="" style="endArrow=classic;html=1;rounded=0;exitX=0;exitY=0;exitDx=55;exitDy=0;exitPerimeter=0;entryX=0;entryY=0;entryDx=0;entryDy=85;entryPerimeter=0;" parent="1" source="hWTjij_SU9B1vVQcxRdL-15" target="hWTjij_SU9B1vVQcxRdL-18" edge="1">
          <mxGeometry width="50" height="50" relative="1" as="geometry">
            <mxPoint x="700" y="370" as="sourcePoint" />
            <mxPoint x="750" y="320" as="targetPoint" />
            <Array as="points">
              <mxPoint x="755" y="335" />
            </Array>
          </mxGeometry>
        </mxCell>
        <mxCell id="hWTjij_SU9B1vVQcxRdL-22" value="localhost:8092" style="text;html=1;strokeColor=none;fillColor=none;align=center;verticalAlign=middle;whiteSpace=wrap;rounded=0;" parent="1" vertex="1">
          <mxGeometry x="350" y="310" width="60" height="30" as="geometry" />
        </mxCell>
        <mxCell id="hWTjij_SU9B1vVQcxRdL-23" value="connectionString" style="text;html=1;strokeColor=none;fillColor=none;align=center;verticalAlign=middle;whiteSpace=wrap;rounded=0;" parent="1" vertex="1">
          <mxGeometry x="670" y="340" width="60" height="30" as="geometry" />
        </mxCell>
        <mxCell id="pZtOpsPQShGiVC8U7aDS-1" value="&amp;lt;&amp;lt;Device&amp;gt;&amp;gt;&lt;br&gt;:BrowserTools" style="verticalAlign=top;align=left;spacingTop=8;spacingLeft=2;spacingRight=12;shape=cube;size=10;direction=south;fontStyle=4;html=1;whiteSpace=wrap;" vertex="1" parent="1">
          <mxGeometry x="235" y="130" width="150" height="110" as="geometry" />
        </mxCell>
        <mxCell id="pZtOpsPQShGiVC8U7aDS-2" value="&lt;font style=&quot;font-size: 8px;&quot;&gt;&amp;lt;&amp;lt;Artifact&amp;gt;&amp;gt;&lt;/font&gt;&lt;br&gt;HTML 5, CSS,&amp;nbsp;&lt;br&gt;Bootstrap Tools" style="shape=module;align=left;spacingLeft=20;align=center;verticalAlign=top;whiteSpace=wrap;html=1;" vertex="1" parent="1">
          <mxGeometry x="250" y="180" width="115" height="50" as="geometry" />
        </mxCell>
      </root>
    </mxGraphModel>
  </diagram>
  <diagram id="_2SvEiAS_AVrVIzJIutT" name="Компонентов">
    <mxGraphModel dx="944" dy="419" grid="1" gridSize="10" guides="1" tooltips="1" connect="1" arrows="1" fold="1" page="1" pageScale="1" pageWidth="2339" pageHeight="3300" math="0" shadow="0">
      <root>
        <mxCell id="0" />
        <mxCell id="1" parent="0" />
        <mxCell id="vZ7uyI8jltpaOc5Lebe--1" value="Список вакансий" style="shape=module;align=left;spacingLeft=20;align=center;verticalAlign=top;whiteSpace=wrap;html=1;" parent="1" vertex="1">
          <mxGeometry x="200" y="70" width="100" height="50" as="geometry" />
        </mxCell>
        <mxCell id="vZ7uyI8jltpaOc5Lebe--2" value="Дисплей вакансии" style="shape=module;align=left;spacingLeft=20;align=center;verticalAlign=top;whiteSpace=wrap;html=1;" parent="1" vertex="1">
          <mxGeometry x="390" y="110" width="110" height="50" as="geometry" />
        </mxCell>
        <mxCell id="vZ7uyI8jltpaOc5Lebe--3" value="" style="endArrow=classic;html=1;rounded=0;entryX=1;entryY=0.5;entryDx=0;entryDy=0;exitX=0.5;exitY=0;exitDx=0;exitDy=0;" parent="1" source="vZ7uyI8jltpaOc5Lebe--2" target="vZ7uyI8jltpaOc5Lebe--1" edge="1">
          <mxGeometry width="50" height="50" relative="1" as="geometry">
            <mxPoint x="460" y="250" as="sourcePoint" />
            <mxPoint x="510" y="200" as="targetPoint" />
            <Array as="points">
              <mxPoint x="445" y="95" />
            </Array>
          </mxGeometry>
        </mxCell>
        <mxCell id="h97j8D8nbWWdOZKJv7a_-1" value="Конфигурация" style="shape=module;align=left;spacingLeft=20;align=center;verticalAlign=top;whiteSpace=wrap;html=1;" parent="1" vertex="1">
          <mxGeometry x="190" y="170" width="120" height="50" as="geometry" />
        </mxCell>
        <mxCell id="h97j8D8nbWWdOZKJv7a_-2" value="" style="endArrow=classic;html=1;rounded=0;entryX=0.5;entryY=1;entryDx=0;entryDy=0;exitX=0.5;exitY=0;exitDx=0;exitDy=0;" parent="1" source="h97j8D8nbWWdOZKJv7a_-1" target="vZ7uyI8jltpaOc5Lebe--1" edge="1">
          <mxGeometry width="50" height="50" relative="1" as="geometry">
            <mxPoint x="460" y="250" as="sourcePoint" />
            <mxPoint x="510" y="200" as="targetPoint" />
          </mxGeometry>
        </mxCell>
        <mxCell id="h97j8D8nbWWdOZKJv7a_-3" value="Трудоустройство" style="shape=module;align=left;spacingLeft=20;align=center;verticalAlign=top;whiteSpace=wrap;html=1;" parent="1" vertex="1">
          <mxGeometry x="190" y="290" width="120" height="50" as="geometry" />
        </mxCell>
        <mxCell id="h97j8D8nbWWdOZKJv7a_-4" value="Клиент" style="shape=umlActor;verticalLabelPosition=bottom;verticalAlign=top;html=1;outlineConnect=0;" parent="1" vertex="1">
          <mxGeometry x="40" y="60" width="30" height="60" as="geometry" />
        </mxCell>
        <mxCell id="h97j8D8nbWWdOZKJv7a_-6" value="" style="endArrow=block;dashed=1;endFill=0;endSize=12;html=1;rounded=0;exitX=0.5;exitY=0;exitDx=0;exitDy=0;exitPerimeter=0;entryX=0.5;entryY=0;entryDx=0;entryDy=0;" parent="1" source="h97j8D8nbWWdOZKJv7a_-4" target="vZ7uyI8jltpaOc5Lebe--1" edge="1">
          <mxGeometry width="160" relative="1" as="geometry">
            <mxPoint x="400" y="60" as="sourcePoint" />
            <mxPoint x="190" y="40" as="targetPoint" />
            <Array as="points">
              <mxPoint x="55" y="40" />
              <mxPoint x="250" y="40" />
            </Array>
          </mxGeometry>
        </mxCell>
        <mxCell id="h97j8D8nbWWdOZKJv7a_-7" value="Отправка резюме" style="shape=module;align=left;spacingLeft=20;align=center;verticalAlign=top;whiteSpace=wrap;html=1;" parent="1" vertex="1">
          <mxGeometry x="190" y="410" width="120" height="50" as="geometry" />
        </mxCell>
        <mxCell id="h97j8D8nbWWdOZKJv7a_-9" value="" style="endArrow=classic;html=1;rounded=0;entryX=0.5;entryY=1;entryDx=0;entryDy=0;exitX=0.5;exitY=0;exitDx=0;exitDy=0;" parent="1" source="h97j8D8nbWWdOZKJv7a_-3" target="h97j8D8nbWWdOZKJv7a_-1" edge="1">
          <mxGeometry width="50" height="50" relative="1" as="geometry">
            <mxPoint x="470" y="390" as="sourcePoint" />
            <mxPoint x="520" y="340" as="targetPoint" />
          </mxGeometry>
        </mxCell>
        <mxCell id="h97j8D8nbWWdOZKJv7a_-10" value="" style="endArrow=classic;html=1;rounded=0;entryX=0.5;entryY=1;entryDx=0;entryDy=0;exitX=0.5;exitY=0;exitDx=0;exitDy=0;" parent="1" source="h97j8D8nbWWdOZKJv7a_-7" target="h97j8D8nbWWdOZKJv7a_-3" edge="1">
          <mxGeometry width="50" height="50" relative="1" as="geometry">
            <mxPoint x="470" y="390" as="sourcePoint" />
            <mxPoint x="520" y="340" as="targetPoint" />
          </mxGeometry>
        </mxCell>
        <mxCell id="h97j8D8nbWWdOZKJv7a_-11" value="Отслеживание обратной связи" style="shape=module;align=left;spacingLeft=20;align=center;verticalAlign=top;whiteSpace=wrap;html=1;" parent="1" vertex="1">
          <mxGeometry x="190" y="520" width="120" height="50" as="geometry" />
        </mxCell>
        <mxCell id="h97j8D8nbWWdOZKJv7a_-12" value="" style="endArrow=classic;html=1;rounded=0;entryX=0.5;entryY=1;entryDx=0;entryDy=0;exitX=0.5;exitY=0;exitDx=0;exitDy=0;" parent="1" source="h97j8D8nbWWdOZKJv7a_-11" target="h97j8D8nbWWdOZKJv7a_-7" edge="1">
          <mxGeometry width="50" height="50" relative="1" as="geometry">
            <mxPoint x="470" y="390" as="sourcePoint" />
            <mxPoint x="520" y="340" as="targetPoint" />
          </mxGeometry>
        </mxCell>
        <mxCell id="h97j8D8nbWWdOZKJv7a_-14" value="Дисплей резюме" style="shape=module;align=left;spacingLeft=20;align=center;verticalAlign=top;whiteSpace=wrap;html=1;" parent="1" vertex="1">
          <mxGeometry x="400" y="420" width="110" height="50" as="geometry" />
        </mxCell>
        <mxCell id="h97j8D8nbWWdOZKJv7a_-15" value="" style="endArrow=classic;html=1;rounded=0;exitX=0.5;exitY=1;exitDx=0;exitDy=0;entryX=1;entryY=0.5;entryDx=0;entryDy=0;" parent="1" source="h97j8D8nbWWdOZKJv7a_-14" target="h97j8D8nbWWdOZKJv7a_-7" edge="1">
          <mxGeometry width="50" height="50" relative="1" as="geometry">
            <mxPoint x="540" y="400" as="sourcePoint" />
            <mxPoint x="590" y="350" as="targetPoint" />
            <Array as="points">
              <mxPoint x="455" y="490" />
              <mxPoint x="410" y="490" />
              <mxPoint x="360" y="490" />
              <mxPoint x="360" y="435" />
            </Array>
          </mxGeometry>
        </mxCell>
      </root>
    </mxGraphModel>
  </diagram>
</mxfile>
